<svg width="15" height="12" viewBox="0 0 15 12" fill="none" xmlns="http://www.w3.org/2000/svg">
<path fill-rule="evenodd" clip-rule="evenodd" d="M1 0.611633C0.447715 0.611633 0 1.05935 0 1.61163V10.3883C0 10.9406 0.447715 11.3883 1 11.3883H14C14.5523 11.3883 15 10.9406 15 10.3883V1.61163C15 1.05935 14.5523 0.611633 14 0.611633H1ZM1.16953 1.77661C1.08669 1.77661 1.01953 1.84377 1.01953 1.92661V3.66545C1.01953 3.74829 1.08669 3.81545 1.16953 3.81545H2.90837C2.99121 3.81545 3.05837 3.74829 3.05837 3.66545V1.92661C3.05837 1.84377 2.99121 1.77661 2.90837 1.77661H1.16953ZM12.0919 8.18445C12.0091 8.18445 11.9419 8.25161 11.9419 8.33445V10.0733C11.9419 10.1561 12.0091 10.2233 12.0919 10.2233H13.8307C13.9136 10.2233 13.9807 10.1561 13.9807 10.0733V8.33445C13.9807 8.25161 13.9136 8.18445 13.8307 8.18445H12.0919ZM9.61136 6.00002C9.61136 7.12603 8.69854 8.03885 7.57253 8.03885C6.44651 8.03885 5.53369 7.12603 5.53369 6.00002C5.53369 4.874 6.44651 3.96118 7.57253 3.96118C8.69854 3.96118 9.61136 4.874 9.61136 6.00002Z" fill="#175BCC"/>
</svg>
