<svg width="200" height="63" viewBox="0 0 200 63" fill="none" xmlns="http://www.w3.org/2000/svg">
<path d="M191.868 62.6502H175.015L136.815 60.1734L98.6342 62.6502H85.1307L55.3836 60.9795L27.4821 62.6502H8.14018C6.86562 62.6498 5.60896 62.3511 4.47132 61.7782C3.33367 61.2053 2.34682 60.3742 1.59016 59.3518C0.833509 58.3293 0.328187 57.1441 0.114863 55.8914C-0.0984614 54.6388 -0.0138289 53.3537 0.361946 52.1396L3.64041 41.5705C8.22188 26.7307 22.2847 16.5772 38.2057 16.5772H161.803C177.724 16.5772 191.784 26.7307 196.368 41.5705L199.638 52.1396C200.014 53.353 200.098 54.6373 199.885 55.8894C199.673 57.1414 199.168 58.3261 198.412 59.3484C197.657 60.3707 196.671 61.202 195.534 61.7754C194.398 62.3489 193.142 62.6485 191.868 62.6502Z" fill="#276EF1"/>
<path d="M61.5676 25.2355V37.3813H51.0493V25.4255C52.8111 27.0419 61.5676 25.2355 61.5676 25.2355Z" fill="#C78982"/>
<path d="M51.0493 27.1233V22.932H61.5676V31.9119C59.8582 31.9119 58.6704 31.9119 57.2669 31.4253C54.9981 30.6526 52.6917 29.0279 51.0493 27.1233Z" fill="#99644D"/>
<path d="M45.9568 13.3883C45.9568 13.1106 45.9693 12.837 45.9903 12.5676C46.0227 12.1862 46.0765 11.8069 46.1516 11.4316C46.1516 11.3898 46.1516 11.3459 46.1516 11.3042C46.1516 5.84108 50.0355 1.33654 55.0548 0.684974C55.4715 0.630072 55.8913 0.602169 56.3117 0.60144C61.9217 0.60144 66.4718 5.40462 66.4718 11.3042C66.4718 11.3439 66.4718 11.3835 66.4718 11.4232C66.5872 12.0083 66.6516 12.6022 66.6645 13.1983C66.6645 13.263 66.6645 13.3257 66.6645 13.3904C66.6645 13.3904 66.698 13.8081 66.6792 14.5453C66.6666 15.0235 66.6394 15.4976 66.5891 15.9716C66.5765 16.099 66.5639 16.2243 66.543 16.3496C66.4815 16.8592 66.3992 17.3638 66.2958 17.8636C66.1157 18.7393 65.8714 19.6007 65.5647 20.4407C65.0228 21.9364 64.2936 23.358 63.3944 24.6716L63.3525 24.7364C63.1996 24.9556 63.0446 25.1749 62.8791 25.3879C62.2942 26.1684 61.6491 26.9023 60.9497 27.5828L60.8931 27.635C58.0609 30.7675 54.7489 30.9032 51.7302 27.635C51.713 27.6166 51.6949 27.5992 51.6757 27.5828C50.6445 26.575 49.7309 25.454 48.9524 24.2414C48.4644 23.4873 48.031 22.6994 47.6557 21.8837C47.1922 20.8823 46.8193 19.8416 46.5412 18.7742C46.2546 17.6897 46.0708 16.5808 45.9924 15.4621C45.9672 15.1572 45.9526 14.8481 45.9442 14.5411C45.9442 14.4304 45.9442 14.3323 45.9442 14.2258C45.9316 13.6932 45.9568 13.3883 45.9568 13.3883Z" fill="#C78982"/>
<path d="M55.593 19.5176C55.5936 19.5086 55.5936 19.4995 55.593 19.4904C55.593 19.4904 55.593 19.5051 55.593 19.5176Z" fill="#C78982"/>
<path d="M55.593 19.5176C55.5936 19.5086 55.5936 19.4995 55.593 19.4904C55.593 19.4904 55.593 19.5051 55.593 19.5176Z" fill="#C78982"/>
<path d="M44.9888 31.0682C46.1493 31.5318 47.7582 31.9035 51.0492 31.9035V26.9396C50.934 26.8143 50.8167 26.6869 50.7057 26.5616C50.5946 26.4363 50.4815 26.3047 50.3726 26.1773C50.2636 26.0499 50.1736 25.9392 50.0772 25.816C50.0562 25.7931 50.0395 25.7701 50.0206 25.7471C49.9437 25.6615 49.8737 25.5701 49.8111 25.4735C48.726 23.5063 48.3762 22.8736 47.9048 19.9332C47.4628 17.1724 47.7582 14.6184 50.2678 13.5951C53.7432 12.1646 56.2424 8.89005 57.3485 5.30854C57.3485 8.97984 59.944 12.1332 62.4578 13.6765C64.9235 15.1906 64.4815 18.0954 64.2867 19.9415C63.9766 22.8652 62.5144 25.4715 61.5633 26.9479V39.5928L61.7728 39.6387C69.1048 41.2551 75.3455 34.2091 72.8358 27.1609L66.2265 7.95656C65.3173 4.41891 62.6988 1.60174 59.391 0.505365C58.7988 0.306361 58.1883 0.166452 57.5684 0.0876971C57.1517 0.0321896 56.7319 0.0035893 56.3115 0.0020752C52.1741 0.0020752 48.5123 2.71692 46.9726 6.47593C46.8343 6.81633 46.694 7.14628 46.5536 7.47624L41.9743 21.2321C40.8367 24.1913 40.378 29.2367 44.9888 31.0682Z" fill="black"/>
<path d="M72.2682 39.4341C72.2682 39.4341 71.5874 36.4102 72.2158 34.9985L72.551 34.2467L64.7141 37.6277L72.2682 39.4341Z" fill="black"/>
<path d="M74.5915 62.6502C74.5906 62.6446 74.5906 62.639 74.5915 62.6335H38.0214C38.0214 62.6335 38.0214 62.6439 38.0214 62.6502H27.4822V62.6209L31.7683 48.4495L32.6502 45.5258C33.4882 42.0111 36.9531 39.3986 40.5856 38.7784L49.0677 36.7548C49.6322 36.6193 50.1345 36.2985 50.494 35.844C50.8534 35.3894 51.0491 34.8276 51.0494 34.2488V31.9056H61.5656V34.2488C61.5663 34.8284 61.7628 35.3909 62.1235 35.8456C62.4842 36.3002 62.988 36.6205 63.5537 36.7548L72.0379 38.7825C75.6683 39.409 79.1353 42.0153 79.9732 45.53L85.1308 62.6502H74.5915Z" fill="white"/>
<path d="M74.3904 62.6335H66.2016L40.043 36.4478H48.2255L74.3904 62.6335Z" fill="#276EF1"/>
<path d="M60.3107 13.334C59.8086 13.3348 59.3128 13.4467 58.8593 13.6615C58.4057 13.8764 58.0057 14.1889 57.688 14.5766L57.4973 14.8084C57.2333 15.1301 57.089 15.533 57.0888 15.9486C57.0888 16.0533 57.0471 16.1537 56.9729 16.2277C56.8986 16.3017 56.7979 16.3433 56.6929 16.3433H55.5617C55.4581 16.3411 55.3596 16.2986 55.2871 16.2248C55.2147 16.151 55.1741 16.0519 55.1741 15.9486C55.171 15.5317 55.0229 15.1287 54.7551 14.8084L54.5666 14.5787C54.2492 14.1883 53.8486 13.8733 53.3939 13.6566C52.9391 13.4398 52.4416 13.3268 51.9376 13.3257H47.7834C47.7768 13.3257 47.7704 13.3283 47.7657 13.333C47.761 13.3377 47.7583 13.3441 47.7583 13.3507V17.0262C47.7589 18.0051 48.1493 18.9437 48.8438 19.6356C49.5384 20.3276 50.4801 20.7163 51.462 20.7163C52.2841 20.7162 53.0827 20.443 53.7318 19.9401C54.3808 19.4371 54.8434 18.733 55.0463 17.9388C55.1095 17.6719 55.2562 17.432 55.4653 17.2538C55.6493 17.1033 55.8799 17.0211 56.1179 17.0211C56.3558 17.0211 56.5865 17.1033 56.7704 17.2538C56.9797 17.4327 57.1264 17.6734 57.1894 17.9409C57.3887 18.7188 57.8372 19.4107 58.4666 19.9115C59.0961 20.4124 59.8722 20.695 60.6773 20.7163C62.7848 20.779 64.4921 19.0122 64.4921 16.9114V13.3654C64.4921 13.3587 64.4894 13.3523 64.4847 13.3476C64.48 13.3429 64.4736 13.3403 64.4669 13.3403L60.3107 13.334Z" fill="black"/>
<path d="M57.3947 23.8342C57.2276 23.7323 57.0322 23.6863 56.837 23.7028C56.6418 23.7193 56.457 23.7976 56.3095 23.9261C56.162 23.7976 55.9772 23.7193 55.7821 23.7028C55.5869 23.6863 55.3915 23.7323 55.2244 23.8342L53.5715 24.8512L53.8774 25.1144C54.5527 25.6959 55.4151 26.016 56.3074 26.0165C57.1998 26.016 58.0622 25.6959 58.7375 25.1144L59.0433 24.8512L57.3947 23.8342Z" fill="#99644D"/>
<path d="M144.401 41.1946H129.249L129.251 33.7538L129.249 21.1423H144.401V41.1946Z" fill="#FFAFA1"/>
<path d="M98.6343 62.6084L102.26 49.8111C103.66 44.8178 107.479 41.0045 112.261 39.8309L123.626 37.0346C126.93 36.2222 129.27 36.4645 129.261 32.8579V32.4236H131.272C131.529 32.4235 131.784 32.4688 132.024 32.5572C132.311 32.6611 132.575 32.8208 132.799 33.0271L136.664 36.5689L140.892 32.9749C141.102 32.7946 141.342 32.6532 141.602 32.5572C141.843 32.4696 142.098 32.4244 142.354 32.4236H144.415V32.8579C144.415 36.4603 146.745 36.216 150.051 37.0346L161.415 39.8309C166.198 41.0066 170.017 44.8178 171.416 49.8111L175.021 62.6084H98.6343Z" fill="black"/>
<path d="M146.158 14.2822L145.783 21.9923C147.074 21.7083 148.297 20.2068 148.659 18.9391L149.432 16.2034C149.525 15.7986 149.506 15.3765 149.378 14.9814C149.25 14.5864 149.018 14.233 148.706 13.9585C148.518 13.8104 148.303 13.7012 148.073 13.6372C147.842 13.5732 147.602 13.5558 147.365 13.586C147.127 13.6161 146.899 13.6933 146.692 13.8128C146.485 13.9324 146.304 14.0919 146.16 14.2822H146.158Z" fill="#FFAFA1"/>
<path d="M127.474 14.2822L127.849 21.9923C126.559 21.7083 125.335 20.2068 124.973 18.9391L124.2 16.2034C124.108 15.7981 124.128 15.3756 124.257 14.9805C124.386 14.5854 124.62 14.2323 124.933 13.9585C125.12 13.8104 125.335 13.7012 125.566 13.6372C125.796 13.5732 126.037 13.5558 126.274 13.586C126.511 13.6161 126.74 13.6933 126.947 13.8128C127.153 13.9324 127.334 14.0919 127.478 14.2822H127.474Z" fill="#FFAFA1"/>
<path d="M147.997 13.6953L147.658 15.4537C147.597 15.7711 147.503 16.1575 147.386 16.5919C146.353 20.4093 143.439 28.0276 143.439 28.0276C142.892 29.3293 141.972 30.4409 140.793 31.2226C139.615 32.0044 138.231 32.4215 136.815 32.4215C135.399 32.4215 134.015 32.0044 132.837 31.2226C131.658 30.4409 130.738 29.3293 130.191 28.0276C130.191 28.0276 127.277 20.4072 126.244 16.5919C126.127 16.1575 126.035 15.7732 125.972 15.4537L125.633 13.7016C124.292 6.78919 129.42 0.208834 136.474 0H136.815H137.157C144.206 0.208834 149.338 6.78919 147.997 13.6953Z" fill="#FFAFA1"/>
<path d="M148.207 11.1476C148.031 5.25844 143.452 0.196308 137.437 0.0187988H137.106H136.817H136.53H136.197C130.17 0.196308 125.601 5.25844 125.423 11.1476C125.397 12.2944 125.538 13.4391 125.842 14.5453L126.632 17.4878H127.977L127.608 16.6524C126.738 14.6695 126.691 12.4239 127.476 10.4062C127.763 9.64847 127.949 8.8565 128.029 8.05055L128.117 7.26116C128.245 6.77088 128.492 6.3196 128.837 5.94724C129.182 5.57487 129.613 5.29291 130.093 5.12628C130.573 4.95965 131.086 4.91351 131.588 4.99193C132.09 5.07034 132.565 5.27091 132.971 5.57587C134.075 6.40777 135.42 6.85791 136.804 6.85791C138.187 6.85791 139.533 6.40777 140.636 5.57587C141.169 5.16978 141.82 4.94962 142.49 4.94937C143.177 4.94733 143.844 5.17299 144.388 5.59078C144.931 6.00858 145.32 6.59476 145.492 7.25698L145.578 8.04637C145.66 8.85226 145.847 9.64411 146.133 10.402C146.918 12.4199 146.87 14.6651 146.001 16.6482L145.633 17.4836H146.977L147.767 14.5411C148.078 13.4371 148.226 12.294 148.207 11.1476Z" fill="#7C4F40"/>
<path d="M146.988 17.4877L144.545 26.6033C144.068 28.2803 143.055 29.7563 141.66 30.8073C140.266 31.8583 138.565 32.427 136.816 32.427C135.068 32.427 133.367 31.8583 131.972 30.8073C130.577 29.7563 129.564 28.2803 129.087 26.6033L126.643 17.4877H127.985L129.797 21.6206C130.403 23.3058 132.632 23.1847 133.765 22.5728L134.813 22.0048C135.425 21.674 136.111 21.5007 136.808 21.5007C137.505 21.5007 138.191 21.674 138.803 22.0048L139.851 22.5728C140.984 23.1847 143.213 23.3058 143.818 21.6206L145.63 17.4877H146.988Z" fill="#7C4F40"/>
<path d="M144.637 11.8388L143.577 11.6947L143.489 11.6759L142.767 11.5589C142.117 11.4529 141.457 11.4311 140.802 11.4942C140.274 11.5467 139.769 11.7339 139.335 12.038C138.901 12.342 138.554 12.7524 138.325 13.2296C138.259 13.3673 138.147 13.4776 138.007 13.5416C137.868 13.6056 137.711 13.6193 137.563 13.5805C137.075 13.4461 136.559 13.4461 136.071 13.5805C135.923 13.6193 135.766 13.6056 135.627 13.5416C135.488 13.4776 135.375 13.3673 135.309 13.2296C135.081 12.7524 134.733 12.342 134.299 12.038C133.865 11.7339 133.36 11.5467 132.833 11.4942C132.178 11.4311 131.517 11.4529 130.868 11.5589L130.145 11.6759L130.057 11.6947L128.993 11.8367C128.613 11.8817 128.266 12.0748 128.028 12.3737C127.79 12.6725 127.681 13.053 127.723 13.4322C127.737 13.5384 127.766 13.6419 127.811 13.7392C128.034 14.1984 128.229 14.6705 128.396 15.153C128.482 15.4075 128.59 15.6542 128.718 15.8902C128.972 16.3614 129.313 16.7802 129.724 17.1244C130.136 17.4859 130.621 17.7536 131.147 17.9087C131.673 18.0638 132.227 18.1026 132.77 18.0224C133.455 17.9199 134.092 17.6093 134.594 17.1328C135.096 16.6563 135.439 16.0372 135.575 15.3597C135.602 15.2092 135.619 15.0572 135.627 14.9045C135.633 14.7592 135.685 14.6197 135.777 14.5067C135.869 14.3938 135.995 14.3135 136.136 14.278C136.58 14.1694 137.044 14.1694 137.487 14.278C137.629 14.3135 137.755 14.3938 137.847 14.5067C137.938 14.6197 137.991 14.7592 137.997 14.9045C138.004 15.0572 138.022 15.2092 138.049 15.3597C138.186 16.0368 138.528 16.6555 139.03 17.1315C139.532 17.6076 140.169 17.9179 140.854 18.0203C141.397 18.1014 141.952 18.0632 142.478 17.9085C143.005 17.7538 143.492 17.4861 143.904 17.1244C144.315 16.7823 144.657 16.3656 144.912 15.8964C145.04 15.6605 145.148 15.4138 145.234 15.1592C145.401 14.6768 145.596 14.2047 145.819 13.7454C145.864 13.6482 145.893 13.5447 145.907 13.4385C145.95 13.0586 145.841 12.6771 145.603 12.3772C145.365 12.0774 145.018 11.8838 144.637 11.8388ZM135.055 15.2449C134.942 15.807 134.658 16.3208 134.242 16.7162C133.825 17.1115 133.297 17.3693 132.728 17.4543C132.278 17.5198 131.819 17.487 131.383 17.3583C130.946 17.2296 130.543 17.008 130.202 16.7088C129.86 16.425 129.576 16.0792 129.364 15.6897C129.155 15.2983 129.013 14.8747 128.945 14.4367C128.922 14.3029 128.914 14.1671 128.919 14.0315C128.94 13.5851 129.114 13.1593 129.412 12.8252C129.71 12.4912 130.113 12.269 130.556 12.1959L131.155 12.0998C131.694 12.0116 132.243 11.9934 132.787 12.0455C133.143 12.0801 133.489 12.1895 133.8 12.3665C134.111 12.5436 134.381 12.7844 134.592 13.073C134.754 13.2985 134.866 13.5554 134.921 13.8269C134.967 14.0357 135.02 14.3343 135.06 14.562C135.098 14.7881 135.097 15.0192 135.055 15.2449ZM144.719 14.0357C144.725 14.1713 144.716 14.307 144.694 14.4409C144.625 14.8789 144.484 15.3025 144.275 15.6939C144.063 16.0834 143.778 16.4292 143.437 16.713C143.095 17.0121 142.692 17.2337 142.256 17.3625C141.82 17.4912 141.361 17.5239 140.911 17.4585C140.342 17.3735 139.813 17.1157 139.397 16.7203C138.98 16.325 138.696 15.8112 138.583 15.249C138.543 15.0232 138.543 14.792 138.583 14.5662C138.621 14.3385 138.675 14.0357 138.721 13.8311C138.777 13.5596 138.889 13.3027 139.05 13.0772C139.262 12.7896 139.532 12.5498 139.842 12.3734C140.153 12.1971 140.498 12.0882 140.854 12.0539C141.398 12.0017 141.946 12.02 142.486 12.1082L143.085 12.2042C143.527 12.2774 143.931 12.4995 144.229 12.8336C144.526 13.1677 144.7 13.5935 144.721 14.0399L144.719 14.0357Z" fill="white"/>
<path d="M159.804 37.1161L135.717 61.274L135.583 61.4076L135.623 61.416H127.439L127.401 61.4076L127.516 61.2907L127.533 61.274L151.624 37.1161H159.804Z" fill="#276EF1"/>
<path d="M164.235 62.2325C164.105 61.8733 163.973 61.5162 163.83 61.1633C161.626 55.6993 157.806 51.0331 152.878 47.7843C147.951 44.5355 142.148 42.8577 136.242 42.9737C130.335 43.0897 124.604 44.994 119.808 48.4339C115.013 51.8737 111.38 56.6862 109.393 62.2325C109.345 62.3724 109.295 62.5123 109.249 62.6502H114.597C114.658 62.5103 114.718 62.3703 114.781 62.2325C116.608 58.1099 119.562 54.5829 123.304 52.0548C127.047 49.5267 131.428 48.0995 135.946 47.9363C140.464 47.7731 144.937 48.8806 148.853 51.1321C152.77 53.3836 155.971 56.6883 158.093 60.6683C158.367 61.1779 158.623 61.7 158.855 62.2325C158.918 62.3724 158.979 62.5123 159.037 62.6502H164.379L164.235 62.2325Z" fill="white"/>
<path d="M119.313 59.9645C118.018 60.4219 116.642 60.6725 115.37 61.2363C115.332 61.2531 114.532 62.2074 114.017 62.4204C113.827 62.4923 113.633 62.5543 113.437 62.6063H105.74L105.753 62.362C105.762 62.2605 105.762 62.1585 105.753 62.0571L105.648 61.0755C105.632 60.9438 105.632 60.8105 105.648 60.6788C105.674 60.4378 105.752 60.2054 105.878 59.998C106.003 59.7905 106.173 59.613 106.375 59.478H106.387L106.773 59.2127C107.277 58.8627 107.684 58.3915 107.956 57.8428L108.331 57.0785C108.42 56.858 108.556 56.659 108.728 56.4948C108.9 56.3306 109.106 56.2049 109.331 56.1262H109.362L109.481 56.0928L109.993 55.9466C110.499 55.7984 110.957 55.5171 111.317 55.1321L111.627 54.8063C111.804 54.6157 112.023 54.4689 112.267 54.3775C112.511 54.2861 112.773 54.2528 113.032 54.2801C113.17 54.295 113.305 54.3273 113.435 54.3761C113.563 54.4241 113.686 54.488 113.799 54.5662L115.544 55.4704C116.038 55.731 116.467 56.0977 116.801 56.5438L119.313 59.9645Z" fill="#FFAFA1"/>
<path d="M169.376 62.5165L169.353 62.6084H158.112L157.975 62.5625C157.452 62.3808 156.343 61.3324 155.813 61.1675L158.229 57.9786C158.563 57.5324 158.992 57.1657 159.486 56.9052L161.231 56.0009C161.345 55.9227 161.468 55.8589 161.597 55.8109C161.907 55.6939 162.245 55.6724 162.568 55.7491C162.89 55.8258 163.182 55.9972 163.405 56.2411L163.715 56.5668C164.076 56.9451 164.532 57.2204 165.035 57.3646L165.546 57.5108L165.666 57.5442H165.697C165.922 57.6232 166.127 57.749 166.299 57.9132C166.471 58.0774 166.605 58.2762 166.694 58.4965L167.071 59.2608C167.343 59.8103 167.75 60.2818 168.255 60.6307L168.638 60.896H168.651C168.852 61.0312 169.022 61.2088 169.147 61.4163C169.272 61.6237 169.35 61.856 169.376 62.0968C169.394 62.2361 169.394 62.3772 169.376 62.5165Z" fill="#FFAFA1"/>
<path d="M174.519 62.6502L98.7808 62.6356L103.48 62.4956C104.288 62.4706 105.095 62.4253 105.901 62.3599C107.517 62.2294 109.126 62.0147 110.719 61.7167C111.376 61.5956 112.031 61.4563 112.684 61.299C114.654 60.8453 116.593 60.2677 118.489 59.5699L118.521 59.5573C119.163 59.3207 119.801 59.0701 120.435 58.8055C120.815 58.6482 121.194 58.4853 121.571 58.3169L121.659 58.2793C122.793 57.7753 123.939 57.3284 125.099 56.9386L125.275 56.8801L125.543 56.7903C125.725 56.7297 125.909 56.6713 126.092 56.617C126.65 56.4415 127.216 56.28 127.79 56.1325C133.939 54.5234 140.39 54.4517 146.573 55.9236C147.898 56.2381 149.205 56.6208 150.49 57.0701C151.036 57.2595 151.58 57.4627 152.122 57.6799C152.315 57.7551 152.508 57.8324 152.698 57.9138L154.726 58.7492C155.605 59.1125 156.49 59.4508 157.383 59.7641C158.029 59.9896 158.679 60.1985 159.331 60.3906C160.494 60.7428 161.667 61.0498 162.848 61.3115C163.38 61.4299 163.914 61.5385 164.449 61.6373C165.672 61.8657 166.901 62.0446 168.135 62.174C168.747 62.2388 169.361 62.291 169.975 62.3327H170.149L174.519 62.6502Z" fill="white"/>
<path d="M138.166 23.8259C137.942 23.7539 137.706 23.7235 137.471 23.7361C137.033 23.757 136.597 23.757 136.159 23.7361C135.924 23.7235 135.688 23.7539 135.464 23.8259L133.409 24.5213L133.79 24.703C134.741 25.1281 135.773 25.3419 136.815 25.3295C137.857 25.3419 138.889 25.1281 139.84 24.703L140.221 24.5213L138.166 23.8259Z" fill="#FFAFA1"/>
</svg>
